<svg width="135" height="29" viewBox="0 0 135 29" fill="none" xmlns="http://www.w3.org/2000/svg">
<path d="M7.78516 0.5625L13.1562 21.1289L18.5078 0.5625H26.0078V29H20.2461V21.3047L20.7734 9.44922L15.0898 29H11.1836L5.5 9.44922L6.02734 21.3047V29H0.285156V0.5625H7.78516ZM44.5625 23.1797H36.7305L35.207 29H29.1328L38.0195 0.5625H43.2734L52.2188 29H46.0859L44.5625 23.1797ZM37.9805 18.3945H43.293L40.6367 8.25781L37.9805 18.3945ZM63.5078 18.6094H60.6562V29H54.9141V0.5625H64.0742C66.9518 0.5625 69.1719 1.3112 70.7344 2.80859C72.3099 4.29297 73.0977 6.40885 73.0977 9.15625C73.0977 12.9323 71.724 15.5755 68.9766 17.0859L73.957 28.7266V29H67.7852L63.5078 18.6094ZM60.6562 13.8242H63.918C65.0638 13.8242 65.9232 13.4466 66.4961 12.6914C67.069 11.9232 67.3555 10.901 67.3555 9.625C67.3555 6.77344 66.2422 5.34766 64.0156 5.34766H60.6562V13.8242ZM77.043 29V0.5625H85.832C88.8008 0.5625 91.0534 1.22656 92.5898 2.55469C94.1393 3.86979 94.9141 5.80339 94.9141 8.35547C94.9141 9.80078 94.5951 11.0443 93.957 12.0859C93.319 13.1276 92.4466 13.8893 91.3398 14.3711C92.6159 14.7357 93.599 15.4714 94.2891 16.5781C94.9792 17.6719 95.3242 19.026 95.3242 20.6406C95.3242 23.401 94.5625 25.4844 93.0391 26.8906C91.5286 28.2969 89.3346 29 86.457 29H77.043ZM82.7852 16.6367V24.2344H86.457C87.4857 24.2344 88.2669 23.9154 88.8008 23.2773C89.3346 22.6393 89.6016 21.7344 89.6016 20.5625C89.6016 18.0104 88.6771 16.7018 86.8281 16.6367H82.7852ZM82.7852 12.457H85.7734C88.026 12.457 89.1523 11.2917 89.1523 8.96094C89.1523 7.67188 88.8919 6.7474 88.3711 6.1875C87.8503 5.6276 87.0039 5.34766 85.832 5.34766H82.7852V12.457ZM105.246 24.2344H115.324V29H99.5039V0.5625H105.246V24.2344ZM133.332 16.6953H124.387V24.2344H134.973V29H118.645V0.5625H134.934V5.34766H124.387V12.0664H133.332V16.6953Z" fill="#4E4E4E"/>
</svg>
